PathFileType	3	(X/Y/Z)	D:\minhoCalibration\240510\subject5_KPNP\preferred\preferred13.trc
DataRate	CameraRate	NumFrames	NumMarkers	Units	OrigDataRate	OrigDataStartFrame	OrigNumFrames
200.0	200.0	22	10	mm	200.0	410	141	
Frame#	Time	Left_Ankle_Outer1			Left_Ankle_Inner1			Left_Knee_Outer1			Left_Knee_Inner1			Left_Wrist1			Right_Wrist1			Right_Knee_Inner1			Right_Knee_Outer1			Right_Ankle_Inner1			Right_Ankle_Outer1			
		X1	Y1	Z1	X2	Y2	Z2	X3	Y3	Z3	X4	Y4	Z4	X5	Y5	Z5	X6	Y6	Z6	X7	Y7	Z7	X8	Y8	Z8	X9	Y9	Z9	X10	Y10	Z10	
410	2.04	299.99551	72.089294	-485.44019	253.59454	83.902702	-506.70569	301.08948	526.10052	-317.09268	219.84221	512.3382	-366.16357	448.96765	986.71466	-449.79739	272.15753	1019.5908	-728.5108	152.30345	479.3237	-737.3819	134.87085	533.74036	-809.39191	470.84518	186.54332	-900.57379	476.44803	252.71153	-971.01062
411	2.045	300.08856	72.034645	-485.29721	253.79478	83.976578	-506.59781	301.64056	525.81909	-315.90457	220.24403	512.15155	-364.47498	449.035	988.17072	-446.02985	268.888	1020.4626	-721.97479	148.7708	478.48752	-736.02081	119.45969	537.29626	-797.7442	457.61017	194.43054	-896.5484	460.50302	261.59418	-966.73737
412	2.05	300.17923	72.015869	-485.12674	253.70723	84.025032	-506.17825	302.25262	525.45831	-314.64331	221.02971	512.04486	-363.22098	449.4212	989.53339	-442.45984	266.31122	1021.819	-717.2193	124.97823	486.65149	-714.32111	104.13631	541.12531	-785.47363	444.31232	203.79756	-890.79791	443.47562	270.14258	-961.95715
413	2.055	300.38013	71.927231	-484.96851	254.07735	84.139427	-506.39023	302.96399	525.05963	-313.43307	222.08421	512.14978	-362.19611	451.05737	990.00317	-440.19437	263.43314	1022.9606	-711.85242	111.49632	490.41742	-702.29633	89.392532	546.03583	-773.73267	430.40384	212.90143	-885.4411	426.44803	278.74997	-956.79596
414	2.06	300.46399	72.00898	-484.84302	254.15051	84.273819	-506.26935	303.7811	524.52466	-312.2905	222.51122	511.46423	-360.78735	451.73071	990.91846	-438.1059	260.38834	1024.4768	-706.48743	103.23092	494.58896	-695.0448	75.179565	551.24652	-761.55084	416.05084	222.05382	-879.40137	409.62503	287.48291	-951.1366
415	2.065	300.49475	72.026978	-484.76212	253.94592	84.340019	-505.81296	304.78174	524.02075	-311.19684	223.75514	511.27493	-359.92303	452.73941	991.55963	-435.56848	257.18027	1026.281	-700.96765	96.00341	497.38345	-687.95435	59.942276	556.43262	-747.61725	401.48022	230.99585	-872.85547	392.64917	295.88425	-944.21094
416	2.07	300.53006	72.178886	-484.75372	254.15536	84.543167	-505.9473	305.95099	523.52826	-310.37302	224.30235	510.65445	-358.3078	453.70502	992.14673	-433.18787	253.96269	1028.4283	-695.44092	83.030235	502.41888	-675.38324	44.910492	562.20599	-733.63251	387.08313	239.83952	-865.60022	376.36102	304.37112	-936.81494
417	2.075	300.61411	72.143227	-484.75714	254.20824	84.620125	-505.79965	307.32492	523.11017	-309.62143	226.34348	511.08151	-357.94931	454.86948	992.62939	-431.07971	250.67696	1030.7169	-689.93427	70.83712	504.26389	-662.54565	30.853613	568.93848	-720.39172	372.43655	248.51694	-857.53876	360.38324	312.79861	-928.9184
418	2.08	300.6701	72.178139	-484.68814	254.32674	84.78376	-505.66388	309.11099	522.78247	-309.0687	227.18895	510.84506	-356.00333	455.58508	993.23621	-428.71521	247.26552	1033.3966	-684.33734	56.968296	515.53174	-649.0741	16.984989	576.30566	-706.62268	358.19104	257.14011	-848.76727	344.78339	321.51926	-920.16357
419	2.085	300.78452	72.16127	-484.7406	254.45926	84.884979	-505.55627	311.03214	522.46869	-308.72281	228.66403	510.70935	-355.61942	458.08499	992.89252	-428.01819	243.58475	1036.087	-677.97284	44.713146	522.11908	-635.91321	3.3554952	584.07977	-692.57501	343.42581	265.37833	-840.4104	329.55283	330.36078	-911.00061
420	2.09	301.1123	72.138382	-484.68436	254.48578	85.011795	-505.11838	313.25986	522.22351	-308.54639	231.37761	510.31976	-353.86264	459.29373	993.20532	-426.29605	240.33987	1039.3385	-672.85303	31.733654	529.84625	-621.62634	-9.8039198	592.44269	-678.30804	329.40173	274.44568	-830.73547	314.38477	339.47067	-901.39215
421	2.095	301.23419	72.069206	-484.6933	254.83919	85.333755	-504.94153	315.66049	521.98431	-308.3418	232.48714	510.43076	-352.48666	460.8118	993.3255	-425.04031	236.84457	1042.9321	-666.97327	20.763929	536.73462	-608.33807	-22.710642	601.14471	-663.53296	314.62036	283.01605	-821.56616	299.21317	348.78592	-891.4259
422	2.1	301.77136	72.346123	-484.72922	255.35387	85.565773	-505.1102	318.20728	521.92645	-308.32471	242.19627	507.00934	-357.93814	462.51822	993.5932	-424.24619	233.45645	1046.5067	-660.97296	10.832105	542.24603	-595.211	-34.448544	610.59338	-649.58289	299.25052	291.19571	-812.94513	284.02048	358.24207	-881.17645
423	2.105	301.02701	72.18367	-484.39496	255.54037	85.981865	-504.94879	320.84677	521.73358	-308.44135	237.54684	510.3497	-351.04266	463.79126	993.85706	-423.0618	230.07956	1050.0104	-654.77075	-0.51949173	564.3147	-561.08173	-47.225235	619.8363	-633.46832	284.76364	300.36462	-802.99603	269.01575	368.2496	-870.90698
424	2.11	303.07617	73.09864	-484.69406	255.84734	86.292206	-504.9675	323.55731	521.76208	-308.69394	238.66826	510.30118	-349.19388	465.87671	994.28314	-422.9884	226.88557	1053.7213	-648.52533	-10.68931	575.78711	-541.62408	-58.979427	629.72076	-617.77954	269.65881	309.50775	-793.77136	253.69835	378.42767	-860.43024
425	2.115	302.98245	73.28582	-484.70435	256.06778	86.559334	-504.78326	326.17398	521.68652	-308.79782	241.65277	510.4108	-348.26526	467.57675	994.75153	-422.60516	224.12766	1057.6198	-642.68164	-27.362783	574.28131	-546.24774	-70.199074	639.85608	-602.12384	254.55469	319.08893	-784.57513	238.31366	389.12021	-850.04797
426	2.12	303.76779	73.639015	-484.82425	255.8839	87.372971	-503.80869	328.83975	521.63959	-309.26227	243.25648	510.37411	-347.48633	469.2626	995.28064	-422.51047	220.84425	1061.2228	-636.46472	-34.127293	595.51312	-512.48126	-81.24054	650.12787	-585.64301	239.40291	328.90738	-775.4884	222.69	400.10672	-839.67212
427	2.125	303.95413	73.741615	-484.85339	256.04993	87.730804	-503.54666	331.56219	521.71899	-309.53665	245.45291	510.60223	-346.74936	470.87543	995.86426	-422.55658	217.71634	1065.1306	-629.43793	-39.710026	606.14862	-493.38657	-91.222404	661.36652	-570.34772	224.21024	339.22034	-766.45532	207.0546	411.53775	-829.43103
428	2.13	304.49445	73.846489	-485.1145	256.88214	88.311653	-503.92831	334.315	521.82324	-310.13022	249.31931	511.02011	-347.68771	472.5181	996.48407	-423.02332	214.6778	1068.9802	-622.75531	-52.095562	615.6618	-479.89172	-100.90036	672.13171	-552.52899	209.06729	350.21613	-757.66418	191.25612	423.35834	-819.29938
429	2.135	303.90485	73.714317	-484.91391	256.54886	88.485435	-503.20996	337.06284	522.00378	-310.72296	250.83563	511.0376	-346.73117	474.30103	997.01117	-424.66904	211.7262	1072.7217	-615.87646	-60.688862	628.00232	-463.33994	-109.07444	684.00256	-537.75916	194.01039	361.53391	-748.87885	175.14471	435.44348	-809.17059
430	2.14	304.02045	74.013062	-484.9585	257.34787	88.953308	-503.66235	339.73471	522.16724	-311.78152	252.36821	511.56943	-345.89536	475.13123	997.65204	-422.96161	208.90282	1076.792	-609.25879	-69.781128	639.1225	-447.65463	-118.49115	695.98389	-519.05573	178.74593	373.17587	-740.25177	159.22133	448.02921	-799.31232
431	2.145	304.26367	74.378258	-485.03619	257.53452	89.114456	-503.00867	342.38013	522.38953	-312.56003	254.51628	511.93225	-345.27371	477.17123	998.24719	-425.53839	206.31297	1080.097	-601.21338	-76.062454	649.91632	-430.13477	-126.93067	708.14673	-502.11002	163.71907	385.3602	-731.67108	143.25844	460.99789	-789.48901
